<?xml version="1.0" encoding="utf-8"?>
<!-- Generator: Adobe Illustrator 16.0.0, SVG Export Plug-In . SVG Version: 6.00 Build 0)  -->
<!DOCTYPE svg PUBLIC "-//W3C//DTD SVG 1.1//EN" "http://www.w3.org/Graphics/SVG/1.1/DTD/svg11.dtd">
<svg version="1.1" id="Layer_1" xmlns="http://www.w3.org/2000/svg" xmlns:xlink="http://www.w3.org/1999/xlink" x="0px" y="0px"
	 width="35px" height="35px" viewBox="0 0 35 35" enable-background="new 0 0 35 35" xml:space="preserve">
<g id="Picture">
	<circle fill="#27BAA2" cx="6.854" cy="7.328" r="3.048"/>
	<path fill="#27BAA2" d="M17.752,8.879c-0.536-0.96-1.453-0.983-2.037-0.05l-2.871,4.587c-0.584,0.934-1.747,1.229-2.585,0.658
		c-0.839-0.571-2.106-0.352-2.818,0.486l-2.86,3.371c-0.712,0.84-0.394,1.526,0.706,1.526h16.378c1.101,0,1.562-0.785,1.024-1.747
		L17.752,8.879z"/>
</g>
<path fill="#27BAA2" d="M27.5,20.695V1.038C27.5,0.468,27.033,0,26.463,0H1.037C0.467,0,0,0.468,0,1.038v25.079
	c0,0.57,0.467,1.039,1.037,1.039h19.816C20.958,23.57,23.891,20.695,27.5,20.695z M2.625,2.799h21.947v17.75H2.625V2.799z"/>
<g>
	<path fill="#27BAA2" d="M27.5,20.932c-3.545,0-6.42,2.875-6.42,6.42s2.875,6.42,6.42,6.42s6.42-2.875,6.42-6.42
		S31.045,20.932,27.5,20.932z M31.586,27.934h-3.503v3.502h-1.166v-3.502h-3.503v-1.166h3.503v-3.502h1.166v3.502h3.503V27.934z"/>
	<circle fill="none" stroke="#FFFFFF" stroke-width="0.9064" stroke-miterlimit="10" cx="27.5" cy="27.352" r="6.656"/>
</g>
</svg>
